{
    "asset" : {
        "generator" : "Khronos glTF Blender I/O v3.4.49",
        "version" : "2.0"
    },
    "extensionsUsed" : [
        "KHR_materials_specular",
        "KHR_materials_ior"
    ],
    "scene" : 0,
    "scenes" : [
        {
            "name" : "Scene",
            "nodes" : [
                0
            ]
        }
    ],
    "nodes" : [
        {
            "mesh" : 0,
            "name" : "All_Body.001",
            "rotation" : [
                0.70710688829422,
                0,
                0,
                0.7071066498756409
            ],
            "scale" : [
                0.009999999776482582,
                0.009999999776482582,
                0.009999999776482582
            ]
        }
    ],
    "materials" : [
        {
            "doubleSided" : true,
            "extensions" : {
                "KHR_materials_specular" : {
                    "specularColorFactor" : [
                        2.371357614441398,
                        2.371357614441398,
                        2.371357614441398
                    ]
                },
                "KHR_materials_ior" : {
                    "ior" : 1.4500000476837158
                }
            },
            "name" : "defaultMat",
            "normalTexture" : {
                "index" : 0,
                "scale" : 0.10000000149011612
            },
            "pbrMetallicRoughness" : {
                "baseColorFactor" : [
                    0.800000011920929,
                    0.800000011920929,
                    0.800000011920929,
                    1
                ],
                "roughnessFactor" : 0.5527864098548889
            }
        }
    ],
    "meshes" : [
        {
            "extras" : {
                "targetNames" : [
                    "EyeClose.L",
                    "EyeClose.R",
                    "Smile",
                    "Blink",
                    "EyebrowsDown",
                    "Frown"
                ]
            },
            "name" : "All_Body.001",
            "primitives" : [
                {
                    "attributes" : {
                        "POSITION" : 0,
                        "TEXCOORD_0" : 1,
                        "NORMAL" : 2
                    },
                    "indices" : 3,
                    "material" : 0,
                    "targets" : [
                        {
                            "POSITION" : 4,
                            "NORMAL" : 5
                        },
                        {
                            "POSITION" : 6,
                            "NORMAL" : 7
                        },
                        {
                            "POSITION" : 8,
                            "NORMAL" : 9
                        },
                        {
                            "POSITION" : 10,
                            "NORMAL" : 11
                        },
                        {
                            "POSITION" : 12,
                            "NORMAL" : 13
                        },
                        {
                            "POSITION" : 14,
                            "NORMAL" : 15
                        }
                    ]
                }
            ],
            "weights" : [
                0,
                0,
                0,
                0,
                0,
                0
            ]
        }
    ],
    "textures" : [
        {
            "sampler" : 0,
            "source" : 0
        }
    ],
    "images" : [
        {
            "bufferView" : 4,
            "mimeType" : "image/png",
            "name" : "_Albedo"
        }
    ],
    "accessors" : [
        {
            "bufferView" : 0,
            "componentType" : 5126,
            "count" : 5314,
            "max" : [
                77.18476104736328,
                24.084028244018555,
                0.25929272174835205
            ],
            "min" : [
                -77.18473815917969,
                -10.5693998336792,
                -179.84054565429688
            ],
            "type" : "VEC3"
        },
        {
            "bufferView" : 1,
            "componentType" : 5126,
            "count" : 5314,
            "type" : "VEC2"
        },
        {
            "bufferView" : 2,
            "componentType" : 5126,
            "count" : 5314,
            "type" : "VEC3"
        },
        {
            "bufferView" : 3,
            "componentType" : 5123,
            "count" : 25194,
            "type" : "SCALAR"
        },
        {
            "bufferView" : 5,
            "componentType" : 5126,
            "count" : 5314,
            "max" : [
                0.252993106842041,
                0.328857421875,
                0.9770965576171875
            ],
            "min" : [
                -0.4991391897201538,
                -0.005337715148925781,
                -0.9923858642578125
            ],
            "type" : "VEC3"
        },
        {
            "bufferView" : 6,
            "componentType" : 5126,
            "count" : 5314,
            "type" : "VEC3"
        },
        {
            "bufferView" : 7,
            "componentType" : 5126,
            "count" : 5314,
            "max" : [
                0.4991194009780884,
                0.328857421875,
                0.9770965576171875
            ],
            "min" : [
                -0.25301218032836914,
                -0.005337715148925781,
                -0.9923858642578125
            ],
            "type" : "VEC3"
        },
        {
            "bufferView" : 8,
            "componentType" : 5126,
            "count" : 5314,
            "type" : "VEC3"
        },
        {
            "bufferView" : 9,
            "componentType" : 5126,
            "count" : 5314,
            "max" : [
                0.44884395599365234,
                0.17632770538330078,
                0.1056976318359375
            ],
            "min" : [
                -0.4488649368286133,
                -0.7520256042480469,
                -1.6635589599609375
            ],
            "type" : "VEC3"
        },
        {
            "bufferView" : 10,
            "componentType" : 5126,
            "count" : 5314,
            "type" : "VEC3"
        },
        {
            "bufferView" : 11,
            "componentType" : 5126,
            "count" : 5314,
            "max" : [
                0.49910879135131836,
                0.3289070129394531,
                0.97711181640625
            ],
            "min" : [
                -0.49915027618408203,
                -0.005268096923828125,
                -0.99249267578125
            ],
            "type" : "VEC3"
        },
        {
            "bufferView" : 12,
            "componentType" : 5126,
            "count" : 5314,
            "type" : "VEC3"
        },
        {
            "bufferView" : 13,
            "componentType" : 5126,
            "count" : 5314,
            "max" : [
                0.2529948949813843,
                0.14309120178222656,
                0.8831787109375
            ],
            "min" : [
                -0.2530144453048706,
                -0.013112068176269531,
                -0.09515380859375
            ],
            "type" : "VEC3"
        },
        {
            "bufferView" : 14,
            "componentType" : 5126,
            "count" : 5314,
            "type" : "VEC3"
        },
        {
            "bufferView" : 15,
            "componentType" : 5126,
            "count" : 5314,
            "max" : [
                0.4488649368286133,
                0.7520256042480469,
                1.663543701171875
            ],
            "min" : [
                -0.44884443283081055,
                -0.17632770538330078,
                -0.105682373046875
            ],
            "type" : "VEC3"
        },
        {
            "bufferView" : 16,
            "componentType" : 5126,
            "count" : 5314,
            "type" : "VEC3"
        }
    ],
    "bufferViews" : [
        {
            "buffer" : 0,
            "byteLength" : 63768,
            "byteOffset" : 0,
            "target" : 34962
        },
        {
            "buffer" : 0,
            "byteLength" : 42512,
            "byteOffset" : 63768,
            "target" : 34962
        },
        {
            "buffer" : 0,
            "byteLength" : 63768,
            "byteOffset" : 106280,
            "target" : 34962
        },
        {
            "buffer" : 0,
            "byteLength" : 50388,
            "byteOffset" : 170048,
            "target" : 34963
        },
        {
            "buffer" : 0,
            "byteLength" : 1507167,
            "byteOffset" : 220436
        },
        {
            "buffer" : 0,
            "byteLength" : 63768,
            "byteOffset" : 1727604,
            "target" : 34962
        },
        {
            "buffer" : 0,
            "byteLength" : 63768,
            "byteOffset" : 1791372,
            "target" : 34962
        },
        {
            "buffer" : 0,
            "byteLength" : 63768,
            "byteOffset" : 1855140,
            "target" : 34962
        },
        {
            "buffer" : 0,
            "byteLength" : 63768,
            "byteOffset" : 1918908,
            "target" : 34962
        },
        {
            "buffer" : 0,
            "byteLength" : 63768,
            "byteOffset" : 1982676,
            "target" : 34962
        },
        {
            "buffer" : 0,
            "byteLength" : 63768,
            "byteOffset" : 2046444,
            "target" : 34962
        },
        {
            "buffer" : 0,
            "byteLength" : 63768,
            "byteOffset" : 2110212,
            "target" : 34962
        },
        {
            "buffer" : 0,
            "byteLength" : 63768,
            "byteOffset" : 2173980,
            "target" : 34962
        },
        {
            "buffer" : 0,
            "byteLength" : 63768,
            "byteOffset" : 2237748,
            "target" : 34962
        },
        {
            "buffer" : 0,
            "byteLength" : 63768,
            "byteOffset" : 2301516,
            "target" : 34962
        },
        {
            "buffer" : 0,
            "byteLength" : 63768,
            "byteOffset" : 2365284,
            "target" : 34962
        },
        {
            "buffer" : 0,
            "byteLength" : 63768,
            "byteOffset" : 2429052,
            "target" : 34962
        }
    ],
    "samplers" : [
        {
            "magFilter" : 9729,
            "minFilter" : 9987
        }
    ],
    "buffers" : [
        {
            "byteLength" : 2492820,
            "uri" : "data:application/octet-stream;base64,"
        }
    ]
}
